<svg role="img" xmlns="http://www.w3.org/2000/svg" viewBox="0 0 24 24"><title>activepieces</title><path d="M 7.226562,7.7711929 C 5.90339,5.8094977 6.4210057,3.1465873 8.3826778,1.8234074 10.344361,0.50023912 13.007279,1.0178463 14.330405,2.9795417 L 23.267133,16.22881 c 1.323126,1.961729 0.805476,4.624536 -1.156127,5.947785 -1.961718,1.323134 -4.624624,0.80548 -5.94775,-1.156135 l -3.874508,-5.744261 c -0.498125,-0.627685 -1.512016,-0.529943 -2.120815,0.07879 -0.5048552,0.504904 -0.6701425,1.796453 -0.8132515,2.914685 -0.020984,0.163899 -0.041486,0.324237 -0.062515,0.477684 -0.077653,0.731973 -0.330391,1.456021 -0.770629,2.108744 -1.4385669,2.13275 -4.334467,2.694967 -6.4672382,1.256404 C -0.07846769,20.673942 -0.64198108,17.778323 0.79658996,15.645459 1.5426676,14.539401 2.6807398,13.855667 3.9010479,13.654441 l -0.00172,-0.0017 C 7.4251917,13.141382 8.0788871,9.1621024 7.433622,8.078178 Z"/></svg>