<svg role="img" xmlns="http://www.w3.org/2000/svg" viewBox="0 0 24 24"><title>Baselime</title><path d="M12 23.99c6.6274 0 12-5.3682 12-11.99C24 5.378 18.6274.0099 12 .0099c-2.0222 0-3.9276.4998-5.5991 1.3824-.6449.3406-.7229 1.2008-.2071 1.716l2.998 2.9956c.3358.3355.839.4233 1.2976.3A5.8114 5.8114 0 0 1 12 6.2054c3.203 0 5.7994 2.5943 5.7994 5.7946 0 3.2002-2.5965 5.7945-5.7994 5.7945a5.8068 5.8068 0 0 1-1.5157-.2c-.459-.1237-.9628-.036-1.299.2997l-2.9968 2.9944c-.5156.5152-.4379 1.3751.2066 1.7158C8.068 23.489 9.9755 23.99 12 23.99Zm-9.7633-5.0174c.3916.5465 1.1746.5677 1.6502.0925L6.6844 16.27c.4155-.4151.4448-1.0693.1726-1.5897-.4193-.8016-.6564-1.7133-.6564-2.6803 0-.9689.238-1.8821.6586-2.6846.2728-.5206.2438-1.1754-.172-1.5909L3.8904 4.93c-.4755-.475-1.2583-.454-1.65.092C.8302 6.9876 0 9.397 0 12c0 2.6007.8287 5.008 2.2367 6.9726zM12 9.121c1.5914 0 2.8815 1.289 2.8815 2.879 0 1.5901-1.29 2.8791-2.8815 2.8791-1.5914 0-2.8814-1.289-2.8814-2.879 0-1.5901 1.29-2.8791 2.8814-2.8791z"/></svg>