<svg role="img" xmlns="http://www.w3.org/2000/svg" viewBox="0 0 24 24"><title>Baselime</title><path d="m 12.511341,23.77 c 6.62745,0 12.000012,-5.36819 12.000012,-11.99004 0,-6.62194 -5.372562,-11.99007 -12.000012,-11.99007 -2.022183,0 -3.9275401,0.49978 -5.5991016,1.38246 C 6.2673735,1.51288 6.1893939,2.37306 6.7051499,2.88839 l 2.9979945,2.99547 c 0.3357896,0.33551 0.8390296,0.42331 1.2975886,0.30003 0.481651,-0.12948 0.988034,-0.19854 1.510608,-0.19854 3.202945,0 5.799421,2.59433 5.799421,5.79461 0,3.20022 -2.596476,5.79457 -5.799421,5.79457 -0.524419,0 -1.032578,-0.0695 -1.515732,-0.19997 -0.458901,-0.12379 -0.962756,-0.0361 -1.2988866,0.29965 L 6.6998347,20.66865 C 6.1842358,21.18377 6.2619695,22.04371 6.9064459,22.38442 8.5794285,23.26901 10.486835,23.77 12.511341,23.77 Z M 2.7480345,18.75263 c 0.3915926,0.54649 1.1746479,0.56767 1.6502664,0.0925 l 2.7974294,-2.79514 c 0.415477,-0.41511 0.444786,-1.06934 0.1726019,-1.58966 -0.4192619,-0.80159 -0.6563708,-1.71331 -0.6563708,-2.68037 0,-0.96883 0.2379424,-1.88206 0.6586254,-2.6846 C 7.6433857,8.57483 7.61435,7.91999 7.1985519,7.50454 L 4.4017032,4.71001 C 3.9262418,4.23495 3.1435008,4.25599 2.7517442,4.80201 1.3415177,6.76763 0.511353,9.17691 0.511353,11.77994 c 0,2.60071 0.8287095,5.00801 2.2366815,6.97267 z M 12.511341,8.90085 c 1.59143,0 2.881503,1.28905 2.881503,2.87911 0,1.59007 -1.290073,2.87905 -2.881503,2.87905 -1.591362,0 -2.8814349,-1.28898 -2.8814349,-2.87905 0,-1.59006 1.2900729,-2.87911 2.8814349,-2.87911 z"/></svg>