<svg role="img" viewBox="0 0 24 24" xmlns="http://www.w3.org/2000/svg"><title>GitHubInsights</title><path d="M 2.25 2.625 L 2.25 20.25 L 22.875 20.25 C 23.496094 20.25 24 20.753906 24 21.375 C 24 21.996094 23.496094 22.5 22.875 22.5 L 1.125 22.5 C 0.503906 22.5 0 21.996094 0 21.375 L 0 2.625 C 0 2.003906 0.503906 1.5 1.125 1.5 C 1.746094 1.5 2.25 2.003906 2.25 2.625 Z M 23.671875 6.421875 L 15.796875 14.296875 C 15.355469 14.734375 14.644531 14.734375 14.203125 14.296875 L 10.5 10.589844 L 6.421875 14.671875 C 5.976562 15.082031 5.285156 15.070312 4.855469 14.644531 C 4.429688 14.214844 4.417969 13.523438 4.828125 13.078125 L 9.703125 8.203125 C 10.144531 7.765625 10.855469 7.765625 11.296875 8.203125 L 15 11.910156 L 22.078125 4.828125 C 22.523438 4.417969 23.214844 4.429688 23.644531 4.855469 C 24.070312 5.285156 24.082031 5.976562 23.671875 6.421875 Z M 23.671875 6.421875 "/></svg>
