<svg role="img" viewBox="0 0 24 24" xmlns="http://www.w3.org/2000/svg"><title>GitHubHistory</title><path d="M 0.640625 2.890625 L 2.464844 4.714844 C 5.960938 0.136719 12.214844 -1.3125 17.367188 1.261719 C 22.519531 3.835938 25.117188 9.707031 23.554688 15.25 C 21.996094 20.796875 16.71875 24.449219 10.976562 23.957031 C 5.238281 23.46875 0.660156 18.96875 0.0625 13.242188 C 0 12.621094 0.449219 12.070312 1.066406 12.003906 C 1.6875 11.941406 2.238281 12.390625 2.300781 13.007812 C 2.789062 17.691406 6.554688 21.355469 11.246094 21.71875 C 15.9375 22.082031 20.222656 19.042969 21.425781 14.492188 C 22.628906 9.945312 20.410156 5.183594 16.152344 3.175781 C 11.894531 1.171875 6.8125 2.496094 4.074219 6.324219 L 6.109375 8.359375 C 6.21875 8.464844 6.25 8.628906 6.191406 8.769531 C 6.132812 8.910156 5.996094 9 5.84375 9 L 0.375 9 C 0.167969 9 0 8.832031 0 8.625 L 0 3.15625 C 0 3.003906 0.0898438 2.867188 0.230469 2.808594 C 0.371094 2.75 0.535156 2.78125 0.640625 2.890625 Z M 11.625 6 C 12.246094 6 12.75 6.503906 12.75 7.125 L 12.75 11.613281 L 15.792969 12.832031 C 16.347656 13.074219 16.613281 13.714844 16.386719 14.28125 C 16.160156 14.84375 15.527344 15.128906 14.957031 14.917969 L 11.207031 13.417969 C 10.78125 13.246094 10.5 12.835938 10.5 12.375 L 10.5 7.125 C 10.5 6.503906 11.003906 6 11.625 6 Z M 11.625 6 "/></svg>
