<svg role="img" viewBox="0 0 24 24" xmlns="http://www.w3.org/2000/svg"><title>GitHubOrganizations</title><path d="M 2.625 24 C 1.175781 24 0 22.824219 0 21.375 L 0 2.625 C 0 1.175781 1.175781 0 2.625 0 L 15.375 0 C 16.824219 0 18 1.175781 18 2.625 L 18 21.375 C 18 21.503906 17.992188 21.628906 17.972656 21.75 L 21.375 21.75 C 21.582031 21.75 21.75 21.582031 21.75 21.375 L 21.75 12.425781 C 21.75 12.300781 21.6875 12.183594 21.582031 12.117188 L 20 11.0625 C 19.484375 10.714844 19.34375 10.019531 19.6875 9.5 C 20.035156 8.984375 20.730469 8.84375 21.25 9.1875 L 22.832031 10.242188 C 23.5625 10.730469 24 11.550781 24 12.425781 L 24 21.375 C 24 22.824219 22.824219 24 21.375 24 L 16.125 24 C 16.023438 24 15.925781 23.988281 15.828125 23.960938 C 15.679688 23.988281 15.53125 24 15.375 24 L 10.875 24 C 10.253906 24 9.75 23.496094 9.75 22.875 L 9.75 21 L 8.25 21 L 8.25 22.875 C 8.25 23.496094 7.746094 24 7.125 24 Z M 2.25 21.375 C 2.25 21.582031 2.417969 21.75 2.625 21.75 L 6 21.75 L 6 19.875 C 6 19.253906 6.503906 18.75 7.125 18.75 L 10.875 18.75 C 11.496094 18.75 12 19.253906 12 19.875 L 12 21.75 L 15.375 21.75 C 15.582031 21.75 15.75 21.582031 15.75 21.375 L 15.75 2.625 C 15.75 2.417969 15.582031 2.25 15.375 2.25 L 2.625 2.25 C 2.417969 2.25 2.25 2.417969 2.25 2.625 Z M 5.625 9 L 6.375 9 C 6.996094 9 7.5 9.503906 7.5 10.125 C 7.5 10.746094 6.996094 11.25 6.375 11.25 L 5.625 11.25 C 5.003906 11.25 4.5 10.746094 4.5 10.125 C 4.5 9.503906 5.003906 9 5.625 9 Z M 4.5 5.625 C 4.5 5.003906 5.003906 4.5 5.625 4.5 L 6.375 4.5 C 6.996094 4.5 7.5 5.003906 7.5 5.625 C 7.5 6.246094 6.996094 6.75 6.375 6.75 L 5.625 6.75 C 5.003906 6.75 4.5 6.246094 4.5 5.625 Z M 10.5 10.125 C 10.5 9.503906 11.003906 9 11.625 9 L 12.375 9 C 12.996094 9 13.5 9.503906 13.5 10.125 C 13.5 10.746094 12.996094 11.25 12.375 11.25 L 11.625 11.25 C 11.003906 11.25 10.5 10.746094 10.5 10.125 Z M 11.625 4.5 L 12.375 4.5 C 12.996094 4.5 13.5 5.003906 13.5 5.625 C 13.5 6.246094 12.996094 6.75 12.375 6.75 L 11.625 6.75 C 11.003906 6.75 10.5 6.246094 10.5 5.625 C 10.5 5.003906 11.003906 4.5 11.625 4.5 Z M 4.5 14.625 C 4.5 14.003906 5.003906 13.5 5.625 13.5 L 6.375 13.5 C 6.996094 13.5 7.5 14.003906 7.5 14.625 C 7.5 15.246094 6.996094 15.75 6.375 15.75 L 5.625 15.75 C 5.003906 15.75 4.5 15.246094 4.5 14.625 Z M 11.625 13.5 L 12.375 13.5 C 12.996094 13.5 13.5 14.003906 13.5 14.625 C 13.5 15.246094 12.996094 15.75 12.375 15.75 L 11.625 15.75 C 11.003906 15.75 10.5 15.246094 10.5 14.625 C 10.5 14.003906 11.003906 13.5 11.625 13.5 Z M 11.625 13.5 "/></svg>
