<svg role="img" viewBox="0 0 24 24" xmlns="http://www.w3.org/2000/svg"><title>GitHubProjects</title><path d="M 0 2.625 C 0 1.175781 1.175781 0 2.625 0 L 21.375 0 C 22.824219 0 24 1.175781 24 2.625 L 24 21.375 C 24 22.824219 22.824219 24 21.375 24 L 2.625 24 C 1.175781 24 0 22.824219 0 21.375 Z M 9.75 9.75 L 9.75 21.75 L 21.375 21.75 C 21.582031 21.75 21.75 21.582031 21.75 21.375 L 21.75 9.75 Z M 21.75 7.5 L 21.75 2.625 C 21.75 2.417969 21.582031 2.25 21.375 2.25 L 9.75 2.25 L 9.75 7.5 Z M 2.25 9.75 L 2.25 21.375 C 2.25 21.582031 2.417969 21.75 2.625 21.75 L 7.5 21.75 L 7.5 9.75 Z M 7.5 7.5 L 7.5 2.25 L 2.625 2.25 C 2.417969 2.25 2.25 2.417969 2.25 2.625 L 2.25 7.5 Z M 7.5 7.5 "/></svg>
